<svg width="887" height="1024" viewBox="0 0 887 1024" fill="none" xmlns="http://www.w3.org/2000/svg">
<path d="M443.405 0L886.81 256V768L443.405 1024L0 768V256L443.405 0Z" fill="url(#paint0_linear_110_4605)"/>
<path d="M443.405 0L886.81 256V768L443.405 1024L0 768V256L443.405 0Z" fill="black" fill-opacity="0.1"/>
<path d="M443.405 0L886.81 768H0L443.405 0Z" fill="url(#paint1_linear_110_4605)"/>
<path d="M253.96 512.115C253.987 470.12 262.993 461.125 304.988 461.152C346.982 461.179 355.977 470.186 355.95 512.18C355.923 554.175 346.917 563.17 304.922 563.143C262.928 563.116 253.933 554.109 253.96 512.115Z" fill="white"/>
<path d="M392.73 373.522C392.757 331.528 401.764 322.533 443.758 322.56C485.753 322.587 494.747 331.593 494.721 373.588C494.694 415.582 485.687 424.577 443.693 424.55C401.698 424.523 392.703 415.517 392.73 373.522Z" fill="white"/>
<path d="M304.988 461.152C346.982 461.179 355.977 470.186 355.95 512.18C355.977 470.186 401.698 424.523 443.693 424.55C401.698 424.523 392.703 415.517 392.73 373.522C392.703 415.517 346.982 461.179 304.988 461.152Z" fill="white" fill-opacity="0.7"/>
<path d="M392.73 650.707C392.757 608.712 401.764 599.718 443.758 599.745C485.753 599.771 494.748 608.778 494.721 650.772C494.694 692.767 485.687 701.762 443.693 701.735C401.698 701.708 392.703 692.701 392.73 650.707Z" fill="white"/>
<path d="M531.501 512.115C531.528 470.12 540.534 461.125 582.528 461.152C624.523 461.179 633.518 470.186 633.491 512.18C633.464 554.175 624.458 563.17 582.463 563.143C540.469 563.116 531.474 554.109 531.501 512.115Z" fill="white"/>
<path d="M443.758 599.745C485.753 599.771 494.748 608.778 494.721 650.772C494.748 608.778 540.469 563.116 582.463 563.143C540.469 563.116 531.474 554.109 531.501 512.115C531.474 554.109 485.753 599.771 443.758 599.745Z" fill="white" fill-opacity="0.7"/>
<path d="M494.656 512.257C494.656 540.421 471.824 563.252 443.66 563.252C415.497 563.252 392.665 540.421 392.665 512.257C392.665 484.093 415.497 461.262 443.66 461.262C471.824 461.262 494.656 484.093 494.656 512.257Z" fill="white"/>
<defs>
<linearGradient id="paint0_linear_110_4605" x1="1087.98" y1="47.6355" x2="102.743" y2="1066.66" gradientUnits="userSpaceOnUse">
<stop stop-color="#FF75A7"/>
<stop offset="1" stop-color="#5E8BFF"/>
</linearGradient>
<linearGradient id="paint1_linear_110_4605" x1="1001.63" y1="47.6356" x2="21.7775" y2="925.315" gradientUnits="userSpaceOnUse">
<stop stop-color="#FF75A7"/>
<stop offset="1" stop-color="#5E8BFF"/>
</linearGradient>
</defs>
</svg>
